<?xml version="1.0" encoding="UTF-8"?>
<svg id="Layer_1" data-name="Layer 1" xmlns="http://www.w3.org/2000/svg" viewBox="0 0 100 100">
  <defs>
    <style>
      .cls-1 {
        fill: #010041;
        stroke-width: 0px;
      }
    </style>
  </defs>
  <g id="Updated_Icons_Outline_Retention_Management" data-name="Updated_Icons_Outline_Retention Management">
    <g>
      <g>
        <polygon class="cls-1" points="48.97 58.13 33.88 49.06 36.53 44.68 48.97 52.12 61.4 44.68 64.05 49.06 48.97 58.13"/>
        <path class="cls-1" d="m65.17,65.47h-32.72v-24.46h32.61v24.46h.1Zm-27.62-5.1h22.42v-14.27h-22.42v14.27Z"/>
      </g>
      <g>
        <path class="cls-1" d="m47.85,83c-5.81,0-11.41-1.63-16.41-4.79-7.03-4.38-11.82-11.31-13.66-19.36-1.83-7.95-.41-16.31,3.97-23.24,3.67-5.71,8.87-10.09,15.19-12.43l1.83,4.79c-5.3,2.04-9.68,5.61-12.74,10.4-3.67,5.81-4.89,12.74-3.36,19.47,1.63,6.73,5.71,12.43,11.52,16.1,12.03,7.64,28.03,3.97,35.67-8.05,3.67-5.81,4.89-12.74,3.36-19.47-1.53-6.73-5.61-12.43-11.41-16.1-3.97-2.55-8.66-3.87-13.35-3.97l.1-5.1c5.71.1,11.21,1.73,16,4.79,7.03,4.38,11.82,11.31,13.66,19.36,1.83,8.05.41,16.31-3.97,23.34-4.38,7.03-11.31,11.82-19.36,13.66-2.34.41-4.69.61-7.03.61Z"/>
        <polygon class="cls-1" points="53.55 34.38 43.87 24.09 54.17 14.31 57.63 18.08 51.11 24.29 57.33 30.92 53.55 34.38"/>
      </g>
    </g>
  </g>
</svg>