<?xml version="1.0" encoding="UTF-8"?>
<svg id="Layer_1" data-name="Layer 1" xmlns="http://www.w3.org/2000/svg" viewBox="0 0 100 100">
  <defs>
    <style>
      .cls-1 {
        fill: #010041;
        stroke-width: 0px;
      }
    </style>
  </defs>
  <g id="_2020_Icon_cloud-archive-email" data-name="2020_Icon_cloud-archive-email">
    <path class="cls-1" d="m85.14,60.75l.04-.02-.04-.02c-.02-.76-.04-1.53-.09-2.92l-3.1-1.24,3.27-1.53c-.04-1.39-.06-2.16-.09-2.92l.04-.02-.04-.02c-.02-.76-.04-1.53-.09-2.91l-13.94-5.61v-19.52H14v42.03h39.65l-1.04.42c-.04,1.39-.06,2.16-.09,2.92l-.04.02.04.02c-.02.76-.04,1.53-.08,2.91l16.39,7.67,16.39-7.67c-.04-1.38-.06-2.15-.09-2.91l.04-.02-.04-.02c-.02-.76-.04-1.53-.09-2.92l-3.09-1.24,3.26-1.53c-.04-1.39-.06-2.16-.09-2.92Zm-6.43,8.85l-9.61,4.53-9.61-4.53,3.14-1.27,6.48,3.05,6.48-3.05,3.14,1.27Zm-3.31-15.88l-3.32,1.56-.71.34-2.27,1.07-.42-.19-2.57-1.22-.13-.05-3.2-1.51-3.3-1.55,6.5-2.64,2.69-1.09.42-.17,2.27.93,7.34,2.97-3.31,1.55Zm-9.68-20.73l-23.17,13.92-23.18-13.92v-3.61h46.34v3.61Zm-23.17,19.96l23.17-13.94v4.69l-13.11,5.31c-.04,1.39-.06,2.17-.09,2.93l-.04.02.04.02c-.02.77-.04,1.54-.08,2.94l3.26,1.54-3.1,1.25c-.04,1.38-.06,2.16-.09,2.91H19.39v-21.62l23.18,13.94Zm36.15,7.93l-3.31,1.56-3.31,1.56-.72.33-2.27,1.08-3-1.41-1.41-.67-1.91-.89-3.3-1.56.58-.24,2.55-1.03,2.21,1.03,1.1.52,2.75,1.3.42.19,2.27-1.08.89-.42,3.31-1.55,3.14,1.27Z"/>
  </g>
</svg>